name rise43.5482peak65.4966fall89.1036.mot
datacolumns 19
datarows 15
range 8.85662500000000 8.87996100000000
endheader
time	ground_force1_vx	ground_force1_vy	ground_force1_vz	ground_force1_px	ground_force1_py	ground_force1_pz	ground_force2_vx	ground_force2_vy	ground_force2_vz	ground_force2_px	ground_force2_py	ground_force2_pz	ground_torque1_x	ground_torque1_y	ground_torque1_z	ground_torque2_x	ground_torque2_y	ground_torque2_z	
8.85662500000000	66.35741000000000	821.41428299999995	63.76927400000000	0.29509000000000	0.00000000000000	0.11622700000000	0.00000000000000	0.00000000000000	0.00000000000000	0.00000000000000	0.00000000000000	0.00000000000000	0.00000000000000	22.24876900000000	0.00000000000000	0.00000000000000	0.00000000000000	0.00000000000000	
8.85829400000000	65.57507300000000	821.92834300000004	63.68850500000000	0.29416400000000	0.00000000000000	0.11621000000000	0.00000000000000	0.00000000000000	0.00000000000000	0.00000000000000	0.00000000000000	0.00000000000000	0.00000000000000	22.23865100000000	0.00000000000000	0.00000000000000	0.00000000000000	0.00000000000000	
8.85996000000000	64.79412400000000	822.27869399999997	63.60089900000000	0.29324700000000	0.00000000000000	0.11619400000000	0.00000000000000	0.00000000000000	0.00000000000000	0.00000000000000	0.00000000000000	0.00000000000000	0.00000000000000	22.22589600000000	0.00000000000000	0.00000000000000	0.00000000000000	0.00000000000000	
8.86162500000000	64.01502700000000	822.46821999999997	63.50665300000000	0.29233600000000	0.00000000000000	0.11617900000000	0.00000000000000	0.00000000000000	0.00000000000000	0.00000000000000	0.00000000000000	0.00000000000000	0.00000000000000	22.21050400000000	0.00000000000000	0.00000000000000	0.00000000000000	0.00000000000000	
8.86329300000000	63.23819300000000	822.50001199999997	63.40592800000000	0.29143000000000	0.00000000000000	0.11616400000000	0.00000000000000	0.00000000000000	0.00000000000000	0.00000000000000	0.00000000000000	0.00000000000000	0.00000000000000	22.19246200000000	0.00000000000000	0.00000000000000	0.00000000000000	0.00000000000000	
8.86495800000000	62.46398400000000	822.37736399999994	63.29885800000000	0.29052800000000	0.00000000000000	0.11615000000000	0.00000000000000	0.00000000000000	0.00000000000000	0.00000000000000	0.00000000000000	0.00000000000000	0.00000000000000	22.17174100000000	0.00000000000000	0.00000000000000	0.00000000000000	0.00000000000000	
8.86663200000000	61.69271700000000	822.10376499999995	63.18554400000000	0.28962900000000	0.00000000000000	0.11613600000000	0.00000000000000	0.00000000000000	0.00000000000000	0.00000000000000	0.00000000000000	0.00000000000000	0.00000000000000	22.14829800000000	0.00000000000000	0.00000000000000	0.00000000000000	0.00000000000000	
8.86829500000000	60.92466700000000	821.68290100000002	63.06606500000000	0.28873100000000	0.00000000000000	0.11612400000000	0.00000000000000	0.00000000000000	0.00000000000000	0.00000000000000	0.00000000000000	0.00000000000000	0.00000000000000	22.12208300000000	0.00000000000000	0.00000000000000	0.00000000000000	0.00000000000000	
8.86996000000000	60.16007400000000	821.11864000000003	62.94047600000000	0.28783200000000	0.00000000000000	0.11611200000000	0.00000000000000	0.00000000000000	0.00000000000000	0.00000000000000	0.00000000000000	0.00000000000000	0.00000000000000	22.09303300000000	0.00000000000000	0.00000000000000	0.00000000000000	0.00000000000000	
8.87163300000000	59.39914100000000	820.41503100000000	62.80881500000000	0.28693200000000	0.00000000000000	0.11610200000000	0.00000000000000	0.00000000000000	0.00000000000000	0.00000000000000	0.00000000000000	0.00000000000000	0.00000000000000	22.06108100000000	0.00000000000000	0.00000000000000	0.00000000000000	0.00000000000000	
8.87329400000000	58.64204500000000	819.57629399999996	62.67110200000000	0.28603000000000	0.00000000000000	0.11609200000000	0.00000000000000	0.00000000000000	0.00000000000000	0.00000000000000	0.00000000000000	0.00000000000000	0.00000000000000	22.02615300000000	0.00000000000000	0.00000000000000	0.00000000000000	0.00000000000000	
8.87496000000000	57.88893500000000	818.60681000000000	62.52734700000000	0.28512400000000	0.00000000000000	0.11608200000000	0.00000000000000	0.00000000000000	0.00000000000000	0.00000000000000	0.00000000000000	0.00000000000000	0.00000000000000	21.98817100000000	0.00000000000000	0.00000000000000	0.00000000000000	0.00000000000000	
8.87662900000000	57.13994000000000	817.51111500000002	62.37754600000000	0.28421200000000	0.00000000000000	0.11607400000000	0.00000000000000	0.00000000000000	0.00000000000000	0.00000000000000	0.00000000000000	0.00000000000000	0.00000000000000	21.94705800000000	0.00000000000000	0.00000000000000	0.00000000000000	0.00000000000000	
8.87829300000000	56.39517000000000	816.29388700000004	62.22169300000000	0.28329400000000	0.00000000000000	0.11606700000000	0.00000000000000	0.00000000000000	0.00000000000000	0.00000000000000	0.00000000000000	0.00000000000000	0.00000000000000	21.90273500000000	0.00000000000000	0.00000000000000	0.00000000000000	0.00000000000000	
8.87996100000000	55.65472300000000	814.95993699999997	62.05977600000000	0.28236900000000	0.00000000000000	0.11606000000000	0.00000000000000	0.00000000000000	0.00000000000000	0.00000000000000	0.00000000000000	0.00000000000000	0.00000000000000	21.85512400000000	0.00000000000000	0.00000000000000	0.00000000000000	0.00000000000000	
